<svg xmlns="http://www.w3.org/2000/svg" width="1200" height="800" viewBox="0 0 1200 800" role="img" aria-label="EcoReservoir Starter Kit">
<defs>
  <linearGradient id="g1" x1="0" y1="0" x2="1" y2="1">
    <stop offset="0%" stop-color="#22c55e"/>
    <stop offset="100%" stop-color="#16a34a"/>
  </linearGradient>
  <linearGradient id="g2" x1="1" y1="0" x2="0" y2="1">
    <stop offset="0%" stop-color="#0ea5e9"/>
    <stop offset="100%" stop-color="#3b82f6"/>
  </linearGradient>
  <filter id="shadow" x="-20%" y="-20%" width="140%" height="140%">
    <feDropShadow dx="0" dy="18" stdDeviation="20" flood-color="#0b1220" flood-opacity="0.18"/>
  </filter>
</defs>
<rect width="1200" height="800" fill="#f5f8ff"/>
<circle cx="180" cy="110" r="170" fill="url(#g1)" opacity="0.35"/>
<circle cx="1030" cy="670" r="240" fill="url(#g2)" opacity="0.30"/>
<rect x="90" y="110" rx="36" ry="36" width="1020" height="580" fill="#fff8e7" filter="url(#shadow)"/>
<rect x="130" y="150" rx="26" ry="26" width="450" height="500" fill="url(#g1)" opacity="0.95"/>
<rect x="610" y="150" rx="24" ry="24" width="460" height="120" fill="#eef4ff"/>
<rect x="610" y="290" rx="24" ry="24" width="460" height="80" fill="#eef4ff"/>
<rect x="610" y="390" rx="24" ry="24" width="460" height="80" fill="#eef4ff"/>
<rect x="610" y="490" rx="24" ry="24" width="220" height="80" fill="#dff4ee"/>
<rect x="850" y="490" rx="24" ry="24" width="220" height="80" fill="#e8efff"/>
<text x="160" y="250" font-family="Inter,Segoe UI,Arial" font-size="56" font-weight="700" fill="#111111">EcoReservoir Starter Kit</text>
<text x="160" y="330" font-family="Inter,Segoe UI,Arial" font-size="28" fill="#111111" opacity="0.92">Education</text>
<circle cx="960" cy="204" r="26" fill="#22c55e"/>
<circle cx="896" cy="330" r="18" fill="#16a34a"/>
<circle cx="972" cy="432" r="18" fill="#0ea5e9"/>
<path d="M670 530 C720 470, 770 470, 820 530" stroke="#22c55e" stroke-width="14" fill="none" stroke-linecap="round"/>
<path d="M900 530 C940 490, 980 490, 1020 530" stroke="#0ea5e9" stroke-width="14" fill="none" stroke-linecap="round"/>
</svg>